<svg xmlns="http://www.w3.org/2000/svg" viewBox="0 0 48 34.86"><defs><style>.cls-1{fill:#aaa;}</style></defs><title>眼睛1</title><g id="图层_2" data-name="图层 2"><g id="图层_1-2" data-name="图层 1"><path class="cls-1" d="M24,3.07A22.82,22.82,0,0,1,44.71,16.41a2.42,2.42,0,0,1,0,2,22.79,22.79,0,0,1-41.36.24,2.93,2.93,0,0,1,0-2.52A22.88,22.88,0,0,1,24,3.07M24,0A25.84,25.84,0,0,0,.58,14.86,6,6,0,0,0,.58,20a25.84,25.84,0,0,0,46.92-.27,5.49,5.49,0,0,0,0-4.59A25.85,25.85,0,0,0,24,0Z"/><path class="cls-1" d="M24,12.73a4.7,4.7,0,1,1-4.7,4.7,4.71,4.71,0,0,1,4.7-4.7m0-3.3a8,8,0,1,0,8,8,8,8,0,0,0-8-8Z"/></g></g></svg>