<svg xmlns="http://www.w3.org/2000/svg" viewBox="0 0 38 48"><defs><style>.cls-1{fill:#aaa;}</style></defs><title>手机</title><g id="图层_2" data-name="图层 2"><g id="图层_1-2" data-name="图层 1"><circle class="cls-1" cx="19" cy="40.59" r="2.5"/><rect class="cls-1" x="14.43" y="4.94" width="9.14" height="3" rx="1.5"/><path class="cls-1" d="M33.78,0H4.22A4.11,4.11,0,0,0,0,4V44a4.11,4.11,0,0,0,4.22,4H33.78A4.11,4.11,0,0,0,38,44V4A4.11,4.11,0,0,0,33.78,0ZM4.22,3H33.78a1,1,0,0,1,1,1V32.77H3.17V4A1,1,0,0,1,4.22,3ZM33.78,45H4.22a1,1,0,0,1-1-1V35.78H34.83V44A1,1,0,0,1,33.78,45Z"/></g></g></svg>