<svg xmlns="http://www.w3.org/2000/svg" viewBox="0 0 48 48"><defs><style>.cls-1{fill:#aaa;}</style></defs><title>扫一扫</title><g id="图层_2" data-name="图层 2"><g id="图层_1-2" data-name="图层 1"><path class="cls-1" d="M10.5,45h-5A2.5,2.5,0,0,1,3,42.5v-5a1.5,1.5,0,0,0-3,0v5A5.5,5.5,0,0,0,5.5,48h5a1.5,1.5,0,0,0,0-3Z"/><path class="cls-1" d="M46.5,36A1.5,1.5,0,0,0,45,37.5v5A2.5,2.5,0,0,1,42.5,45h-5a1.5,1.5,0,0,0,0,3h5A5.5,5.5,0,0,0,48,42.5v-5A1.5,1.5,0,0,0,46.5,36Z"/><path class="cls-1" d="M1.5,12A1.5,1.5,0,0,0,3,10.5v-5A2.5,2.5,0,0,1,5.5,3h5a1.5,1.5,0,0,0,0-3h-5A5.5,5.5,0,0,0,0,5.5v5A1.5,1.5,0,0,0,1.5,12Z"/><path class="cls-1" d="M42.5,0h-5a1.5,1.5,0,0,0,0,3h5A2.5,2.5,0,0,1,45,5.5v5a1.5,1.5,0,0,0,3,0v-5A5.5,5.5,0,0,0,42.5,0Z"/><path class="cls-1" d="M46.5,22.5H1.5a1.5,1.5,0,0,0,0,3h45a1.5,1.5,0,0,0,0-3Z"/></g></g></svg>