<svg xmlns="http://www.w3.org/2000/svg" viewBox="0 0 48.19 47.87"><defs><style>.cls-1{fill:#aaa;}</style></defs><title>店铺</title><g id="图层_2" data-name="图层 2"><g id="图层_1-2" data-name="图层 1"><path class="cls-1" d="M47.93,13.54,42.19,0H6L.26,13.54a8.42,8.42,0,0,0,.42,5.39,9.5,9.5,0,0,0,3,3.86V42.66a5.19,5.19,0,0,0,5.16,5.21H39.36a5.2,5.2,0,0,0,5.17-5.21V22.79a9.58,9.58,0,0,0,3-3.86A8.49,8.49,0,0,0,47.93,13.54Zm-6.3,29.12A2.29,2.29,0,0,1,39.36,45H8.82a2.28,2.28,0,0,1-2.26-2.31V24.31A8.3,8.3,0,0,0,9,24.69h.05a9,9,0,0,0,7.52-4,9.05,9.05,0,0,0,15.05,0,9,9,0,0,0,7.52,4h0a8.3,8.3,0,0,0,2.44-.38Zm3.11-24.89a6.27,6.27,0,0,1-5.6,3.92,6,6,0,0,1-5-2.69,3,3,0,0,0-5,0,6,6,0,0,1-10.06,0,3,3,0,0,0-5,0A6.05,6.05,0,0,1,9,21.69a6.26,6.26,0,0,1-5.57-3.92,5.51,5.51,0,0,1-.32-3.31L8,3H40.2l4.86,11.46A5.36,5.36,0,0,1,44.74,17.77Z"/><path class="cls-1" d="M24.2,30.46h0a2.3,2.3,0,0,1,2.3,2.3v8.7a0,0,0,0,1,0,0H21.9a0,0,0,0,1,0,0v-8.7A2.3,2.3,0,0,1,24.2,30.46Z"/></g></g></svg>